# xmcd
#
# Track frame offsets:
#	150
#	4452
#	17822
#	38127
#	68060
#	99042
#	120677
#	133112
#	159555
#	175170
#	195795
#	214280
#	244615
#	263435
#
# Disc length: 3573
#
# Revision: 2
# Processed by: cddbd v1.5.1PL0 Copyright (c) Steve Scherf et al.
# Submitted via: Axialis_AX_CDPlayer 2.6
# Normalized: r1:TDELIM( - )
#
DISCID=b10df30e
DTITLE=Various Artist - Backstage at the Grand Ole Opry
DYEAR=2000
DGENRE=Country
TTITLE0=Backstage Breakdown (Opry Backstage Theme - Opening)
TTITLE1=Roy Acuff - Wabash Cannonball
TTITLE2=Alan Jackson - Here In The Real World
TTITLE3=Lorrie Morgan - I've Enjoyed As Much As I Can Stand
TTITLE4=Roy Acuff and Minnie Pearl - Comedy
TTITLE5=Diamond Rio - Meet Me In The Middle
TTITLE6=Dottie West - Here Comes My Baby
TTITLE7=Steve Warnier - Midnight Fire
TTITLE8=Hank Snow - Sweet Lies
TTITLE9=Martina McBride - Wrong Again
TTITLE10=Boxcar Willie - The Lord Made A Hobo Out Of Me
TTITLE11=Brad Paisley and Chely Wright - Hard To Be A Husband, Hard To Be A Wife
TTITLE12=Vince Gill - I Never Knew Lonely
TTITLE13=Backstage Breakdown (Opry Backstage Theme - Closing)
EXTD=
EXTT0=
EXTT1=
EXTT2=
EXTT3=
EXTT4=
EXTT5=
EXTT6=
EXTT7=
EXTT8=
EXTT9=
EXTT10=
EXTT11=
EXTT12=
EXTT13=
PLAYORDER=
